<mxfile host="app.diagrams.net" agent="Mozilla/5.0 (Windows NT 10.0; Win64; x64) AppleWebKit/537.36 (KHTML, like Gecko) Chrome/130.0.0.0 Safari/537.36" version="24.9.2">
  <diagram id="Ht1M8jgEwFfnCIfOTk4-" name="Page-1">
    <mxGraphModel dx="2669" dy="1577" grid="0" gridSize="10" guides="1" tooltips="1" connect="1" arrows="1" fold="1" page="0" pageScale="1" pageWidth="1169" pageHeight="827" math="0" shadow="0">
      <root>
        <mxCell id="0" />
        <mxCell id="1" parent="0" />
        <mxCell id="UEzPUAAOIrF-is8g5C7q-74" value="AWS Cloud" style="points=[[0,0],[0.25,0],[0.5,0],[0.75,0],[1,0],[1,0.25],[1,0.5],[1,0.75],[1,1],[0.75,1],[0.5,1],[0.25,1],[0,1],[0,0.75],[0,0.5],[0,0.25]];outlineConnect=0;gradientColor=none;html=1;whiteSpace=wrap;fontSize=12;fontStyle=0;shape=mxgraph.aws4.group;grIcon=mxgraph.aws4.group_aws_cloud_alt;strokeColor=#232F3E;fillColor=none;verticalAlign=top;align=left;spacingLeft=30;fontColor=#232F3E;dashed=0;labelBackgroundColor=#ffffff;container=1;pointerEvents=0;collapsible=0;recursiveResize=0;" parent="1" vertex="1">
          <mxGeometry x="-200" y="-110" width="1205" height="940" as="geometry" />
        </mxCell>
        <mxCell id="Mg0s3PgCY5Y0u1hdqkUn-20" value="Private subnet" style="points=[[0,0],[0.25,0],[0.5,0],[0.75,0],[1,0],[1,0.25],[1,0.5],[1,0.75],[1,1],[0.75,1],[0.5,1],[0.25,1],[0,1],[0,0.75],[0,0.5],[0,0.25]];outlineConnect=0;gradientColor=none;html=1;whiteSpace=wrap;fontSize=12;fontStyle=0;container=1;pointerEvents=0;collapsible=0;recursiveResize=0;shape=mxgraph.aws4.group;grIcon=mxgraph.aws4.group_security_group;grStroke=0;strokeColor=#00A4A6;fillColor=#E6F6F7;verticalAlign=top;align=left;spacingLeft=30;fontColor=#147EBA;dashed=0;" vertex="1" parent="UEzPUAAOIrF-is8g5C7q-74">
          <mxGeometry x="750" y="640" width="260" height="140" as="geometry" />
        </mxCell>
        <mxCell id="Mg0s3PgCY5Y0u1hdqkUn-1" value="Amazon Route 53" style="sketch=0;outlineConnect=0;fontColor=#232F3E;gradientColor=none;strokeColor=#ffffff;fillColor=#232F3E;dashed=0;verticalLabelPosition=middle;verticalAlign=bottom;align=center;html=1;whiteSpace=wrap;fontSize=10;fontStyle=1;spacing=3;shape=mxgraph.aws4.productIcon;prIcon=mxgraph.aws4.route_53;" vertex="1" parent="UEzPUAAOIrF-is8g5C7q-74">
          <mxGeometry x="420" y="15" width="80" height="110" as="geometry" />
        </mxCell>
        <mxCell id="Mg0s3PgCY5Y0u1hdqkUn-2" value="Amazon Cloudfront" style="sketch=0;outlineConnect=0;fontColor=#232F3E;gradientColor=none;strokeColor=#ffffff;fillColor=#232F3E;dashed=0;verticalLabelPosition=middle;verticalAlign=bottom;align=center;html=1;whiteSpace=wrap;fontSize=10;fontStyle=1;spacing=3;shape=mxgraph.aws4.productIcon;prIcon=mxgraph.aws4.cloudfront;" vertex="1" parent="UEzPUAAOIrF-is8g5C7q-74">
          <mxGeometry x="600" y="10" width="80" height="110" as="geometry" />
        </mxCell>
        <mxCell id="Mg0s3PgCY5Y0u1hdqkUn-42" value="Amazon S3" style="sketch=0;outlineConnect=0;fontColor=#232F3E;gradientColor=none;strokeColor=#ffffff;fillColor=#232F3E;dashed=0;verticalLabelPosition=middle;verticalAlign=bottom;align=center;html=1;whiteSpace=wrap;fontSize=10;fontStyle=1;spacing=3;shape=mxgraph.aws4.productIcon;prIcon=mxgraph.aws4.s3;" vertex="1" parent="UEzPUAAOIrF-is8g5C7q-74">
          <mxGeometry x="870" y="830" width="80" height="100" as="geometry" />
        </mxCell>
        <mxCell id="Mg0s3PgCY5Y0u1hdqkUn-64" value="" style="endArrow=classic;html=1;rounded=0;fillColor=#008a00;strokeColor=#005700;" edge="1" parent="UEzPUAAOIrF-is8g5C7q-74" target="Mg0s3PgCY5Y0u1hdqkUn-2">
          <mxGeometry width="50" height="50" relative="1" as="geometry">
            <mxPoint x="500" y="65" as="sourcePoint" />
            <mxPoint x="550" y="15" as="targetPoint" />
          </mxGeometry>
        </mxCell>
        <mxCell id="Mg0s3PgCY5Y0u1hdqkUn-69" value="Amazon CloudWatch" style="sketch=0;outlineConnect=0;fontColor=#232F3E;gradientColor=none;strokeColor=#ffffff;fillColor=#232F3E;dashed=0;verticalLabelPosition=middle;verticalAlign=bottom;align=center;html=1;whiteSpace=wrap;fontSize=10;fontStyle=1;spacing=3;shape=mxgraph.aws4.productIcon;prIcon=mxgraph.aws4.cloudwatch;" vertex="1" parent="UEzPUAAOIrF-is8g5C7q-74">
          <mxGeometry x="155" y="213" width="80" height="110" as="geometry" />
        </mxCell>
        <mxCell id="Mg0s3PgCY5Y0u1hdqkUn-70" value="Amazon SNS" style="sketch=0;outlineConnect=0;fontColor=#232F3E;gradientColor=none;strokeColor=#ffffff;fillColor=#232F3E;dashed=0;verticalLabelPosition=middle;verticalAlign=bottom;align=center;html=1;whiteSpace=wrap;fontSize=10;fontStyle=1;spacing=3;shape=mxgraph.aws4.productIcon;prIcon=mxgraph.aws4.sns;" vertex="1" parent="UEzPUAAOIrF-is8g5C7q-74">
          <mxGeometry x="155" y="37" width="80" height="100" as="geometry" />
        </mxCell>
        <mxCell id="Mg0s3PgCY5Y0u1hdqkUn-72" value="" style="endArrow=classic;html=1;rounded=0;" edge="1" parent="UEzPUAAOIrF-is8g5C7q-74" source="Mg0s3PgCY5Y0u1hdqkUn-69" target="Mg0s3PgCY5Y0u1hdqkUn-70">
          <mxGeometry width="50" height="50" relative="1" as="geometry">
            <mxPoint x="190" y="213" as="sourcePoint" />
            <mxPoint x="240" y="163" as="targetPoint" />
          </mxGeometry>
        </mxCell>
        <mxCell id="Mg0s3PgCY5Y0u1hdqkUn-73" value="" style="endArrow=classic;html=1;rounded=0;" edge="1" parent="UEzPUAAOIrF-is8g5C7q-74" target="Mg0s3PgCY5Y0u1hdqkUn-67">
          <mxGeometry width="50" height="50" relative="1" as="geometry">
            <mxPoint x="194" y="37" as="sourcePoint" />
            <mxPoint x="244" y="-13" as="targetPoint" />
            <Array as="points">
              <mxPoint x="194" y="-111" />
            </Array>
          </mxGeometry>
        </mxCell>
        <mxCell id="Mg0s3PgCY5Y0u1hdqkUn-19" value="Public subnet" style="points=[[0,0],[0.25,0],[0.5,0],[0.75,0],[1,0],[1,0.25],[1,0.5],[1,0.75],[1,1],[0.75,1],[0.5,1],[0.25,1],[0,1],[0,0.75],[0,0.5],[0,0.25]];outlineConnect=0;gradientColor=none;html=1;whiteSpace=wrap;fontSize=12;fontStyle=0;container=1;pointerEvents=0;collapsible=0;recursiveResize=0;shape=mxgraph.aws4.group;grIcon=mxgraph.aws4.group_security_group;grStroke=0;strokeColor=#7AA116;fillColor=#F2F6E8;verticalAlign=top;align=left;spacingLeft=30;fontColor=#248814;dashed=0;" vertex="1" parent="1">
          <mxGeometry x="370" y="100" width="470" height="210" as="geometry" />
        </mxCell>
        <mxCell id="Mg0s3PgCY5Y0u1hdqkUn-35" value="VPC" style="points=[[0,0],[0.25,0],[0.5,0],[0.75,0],[1,0],[1,0.25],[1,0.5],[1,0.75],[1,1],[0.75,1],[0.5,1],[0.25,1],[0,1],[0,0.75],[0,0.5],[0,0.25]];outlineConnect=0;gradientColor=none;html=1;whiteSpace=wrap;fontSize=12;fontStyle=0;container=1;pointerEvents=0;collapsible=0;recursiveResize=0;shape=mxgraph.aws4.group;grIcon=mxgraph.aws4.group_vpc2;strokeColor=#8C4FFF;fillColor=none;verticalAlign=top;align=left;spacingLeft=30;fontColor=#AAB7B8;dashed=0;" vertex="1" parent="1">
          <mxGeometry x="60" y="70" width="920" height="615" as="geometry" />
        </mxCell>
        <mxCell id="Mg0s3PgCY5Y0u1hdqkUn-3" value="Elastic Load Balancing" style="sketch=0;outlineConnect=0;fontColor=#232F3E;gradientColor=none;strokeColor=#ffffff;fillColor=#232F3E;dashed=0;verticalLabelPosition=middle;verticalAlign=bottom;align=center;html=1;whiteSpace=wrap;fontSize=10;fontStyle=1;spacing=3;shape=mxgraph.aws4.productIcon;prIcon=mxgraph.aws4.elastic_load_balancing;" vertex="1" parent="Mg0s3PgCY5Y0u1hdqkUn-35">
          <mxGeometry x="350" y="100" width="80" height="110" as="geometry" />
        </mxCell>
        <mxCell id="Mg0s3PgCY5Y0u1hdqkUn-33" value="Auto Scaling group" style="points=[[0,0],[0.25,0],[0.5,0],[0.75,0],[1,0],[1,0.25],[1,0.5],[1,0.75],[1,1],[0.75,1],[0.5,1],[0.25,1],[0,1],[0,0.75],[0,0.5],[0,0.25]];outlineConnect=0;gradientColor=none;html=1;whiteSpace=wrap;fontSize=12;fontStyle=0;container=1;pointerEvents=0;collapsible=0;recursiveResize=0;shape=mxgraph.aws4.groupCenter;grIcon=mxgraph.aws4.group_auto_scaling_group;grStroke=1;strokeColor=#D86613;fillColor=none;verticalAlign=top;align=center;fontColor=#D86613;dashed=1;spacingTop=25;movable=0;resizable=0;rotatable=0;deletable=0;editable=0;locked=1;connectable=0;" vertex="1" parent="Mg0s3PgCY5Y0u1hdqkUn-35">
          <mxGeometry x="525" y="40" width="225" height="190" as="geometry" />
        </mxCell>
        <mxCell id="Mg0s3PgCY5Y0u1hdqkUn-30" value="Amazon EC2" style="sketch=0;outlineConnect=0;fontColor=#232F3E;gradientColor=none;strokeColor=#ffffff;fillColor=#232F3E;dashed=0;verticalLabelPosition=middle;verticalAlign=bottom;align=center;html=1;whiteSpace=wrap;fontSize=10;fontStyle=1;spacing=3;shape=mxgraph.aws4.productIcon;prIcon=mxgraph.aws4.ec2;" vertex="1" parent="Mg0s3PgCY5Y0u1hdqkUn-33">
          <mxGeometry x="15" y="70" width="80" height="100" as="geometry" />
        </mxCell>
        <mxCell id="Mg0s3PgCY5Y0u1hdqkUn-51" value="Web Server" style="text;strokeColor=none;align=center;fillColor=none;html=1;verticalAlign=middle;whiteSpace=wrap;rounded=0;" vertex="1" parent="Mg0s3PgCY5Y0u1hdqkUn-33">
          <mxGeometry x="105" y="100" width="80" height="30" as="geometry" />
        </mxCell>
        <mxCell id="Mg0s3PgCY5Y0u1hdqkUn-59" value="Security Group" style="fontStyle=0;verticalAlign=top;align=center;spacingTop=-2;fillColor=none;rounded=0;whiteSpace=wrap;html=1;strokeColor=#FF0000;strokeWidth=2;dashed=1;container=1;collapsible=0;expand=0;recursiveResize=0;" vertex="1" parent="Mg0s3PgCY5Y0u1hdqkUn-33">
          <mxGeometry x="15" y="50" width="195" height="130" as="geometry" />
        </mxCell>
        <mxCell id="Mg0s3PgCY5Y0u1hdqkUn-36" value="NAT gateway" style="sketch=0;outlineConnect=0;fontColor=#232F3E;gradientColor=none;strokeColor=#232F3E;fillColor=#ffffff;dashed=0;verticalLabelPosition=bottom;verticalAlign=top;align=center;html=1;fontSize=12;fontStyle=0;aspect=fixed;shape=mxgraph.aws4.resourceIcon;resIcon=mxgraph.aws4.nat_gateway;" vertex="1" parent="Mg0s3PgCY5Y0u1hdqkUn-35">
          <mxGeometry x="500" y="300" width="80" height="80" as="geometry" />
        </mxCell>
        <mxCell id="Mg0s3PgCY5Y0u1hdqkUn-37" value="" style="endArrow=classic;startArrow=classic;html=1;rounded=0;entryX=-0.051;entryY=0.314;entryDx=0;entryDy=0;entryPerimeter=0;" edge="1" parent="Mg0s3PgCY5Y0u1hdqkUn-35" target="Mg0s3PgCY5Y0u1hdqkUn-36">
          <mxGeometry width="50" height="50" relative="1" as="geometry">
            <mxPoint x="140.00000000000045" y="203.9975" as="sourcePoint" />
            <mxPoint x="370" y="324" as="targetPoint" />
            <Array as="points">
              <mxPoint x="140" y="324" />
              <mxPoint x="220" y="324" />
            </Array>
          </mxGeometry>
        </mxCell>
        <mxCell id="Mg0s3PgCY5Y0u1hdqkUn-41" value="Amazon RDS" style="sketch=0;outlineConnect=0;fontColor=#232F3E;gradientColor=none;strokeColor=#ffffff;fillColor=#232F3E;dashed=0;verticalLabelPosition=middle;verticalAlign=bottom;align=center;html=1;whiteSpace=wrap;fontSize=10;fontStyle=1;spacing=3;shape=mxgraph.aws4.productIcon;prIcon=mxgraph.aws4.rds;" vertex="1" parent="Mg0s3PgCY5Y0u1hdqkUn-35">
          <mxGeometry x="635" y="495" width="80" height="100" as="geometry" />
        </mxCell>
        <mxCell id="Mg0s3PgCY5Y0u1hdqkUn-43" value="" style="endArrow=classic;startArrow=classic;html=1;rounded=0;fillColor=#008a00;strokeColor=#005700;" edge="1" parent="Mg0s3PgCY5Y0u1hdqkUn-35" source="Mg0s3PgCY5Y0u1hdqkUn-3">
          <mxGeometry width="50" height="50" relative="1" as="geometry">
            <mxPoint x="450" y="175" as="sourcePoint" />
            <mxPoint x="520" y="155" as="targetPoint" />
          </mxGeometry>
        </mxCell>
        <mxCell id="Mg0s3PgCY5Y0u1hdqkUn-45" value="Internet&#xa;gateway" style="sketch=0;outlineConnect=0;fontColor=#232F3E;gradientColor=none;strokeColor=#232F3E;fillColor=#ffffff;dashed=0;verticalLabelPosition=bottom;verticalAlign=top;align=center;html=1;fontSize=12;fontStyle=0;aspect=fixed;shape=mxgraph.aws4.resourceIcon;resIcon=mxgraph.aws4.internet_gateway;" vertex="1" parent="Mg0s3PgCY5Y0u1hdqkUn-35">
          <mxGeometry x="110" y="100" width="60" height="60" as="geometry" />
        </mxCell>
        <mxCell id="Mg0s3PgCY5Y0u1hdqkUn-46" value="" style="endArrow=classic;html=1;rounded=0;exitX=1;exitY=0.833;exitDx=0;exitDy=0;exitPerimeter=0;" edge="1" parent="Mg0s3PgCY5Y0u1hdqkUn-35" source="Mg0s3PgCY5Y0u1hdqkUn-45">
          <mxGeometry width="50" height="50" relative="1" as="geometry">
            <mxPoint x="180" y="128.89" as="sourcePoint" />
            <mxPoint x="350" y="150" as="targetPoint" />
          </mxGeometry>
        </mxCell>
        <mxCell id="Mg0s3PgCY5Y0u1hdqkUn-52" value="MySQL Database" style="text;strokeColor=none;align=center;fillColor=none;html=1;verticalAlign=middle;whiteSpace=wrap;rounded=0;" vertex="1" parent="Mg0s3PgCY5Y0u1hdqkUn-35">
          <mxGeometry x="500" y="530" width="120" height="30" as="geometry" />
        </mxCell>
        <mxCell id="Mg0s3PgCY5Y0u1hdqkUn-53" value="" style="endArrow=classic;html=1;rounded=0;" edge="1" parent="Mg0s3PgCY5Y0u1hdqkUn-35">
          <mxGeometry width="50" height="50" relative="1" as="geometry">
            <mxPoint x="650" y="230" as="sourcePoint" />
            <mxPoint x="650" y="460" as="targetPoint" />
          </mxGeometry>
        </mxCell>
        <mxCell id="Mg0s3PgCY5Y0u1hdqkUn-56" value="" style="endArrow=classic;html=1;rounded=0;" edge="1" parent="Mg0s3PgCY5Y0u1hdqkUn-35" target="Mg0s3PgCY5Y0u1hdqkUn-42">
          <mxGeometry width="50" height="50" relative="1" as="geometry">
            <mxPoint x="750" y="230" as="sourcePoint" />
            <mxPoint x="820" y="400" as="targetPoint" />
            <Array as="points">
              <mxPoint x="750" y="700" />
            </Array>
          </mxGeometry>
        </mxCell>
        <mxCell id="Mg0s3PgCY5Y0u1hdqkUn-58" value="Security Group" style="fontStyle=0;verticalAlign=top;align=center;spacingTop=-2;fillColor=none;rounded=0;whiteSpace=wrap;html=1;strokeColor=#FF0000;strokeWidth=2;dashed=1;container=1;collapsible=0;expand=0;recursiveResize=0;" vertex="1" parent="Mg0s3PgCY5Y0u1hdqkUn-35">
          <mxGeometry x="330" y="70" width="120" height="150" as="geometry" />
        </mxCell>
        <mxCell id="Mg0s3PgCY5Y0u1hdqkUn-61" value="Security Group" style="fontStyle=0;verticalAlign=top;align=center;spacingTop=-2;fillColor=none;rounded=0;whiteSpace=wrap;html=1;strokeColor=#FF0000;strokeWidth=2;dashed=1;container=1;collapsible=0;expand=0;recursiveResize=0;" vertex="1" parent="Mg0s3PgCY5Y0u1hdqkUn-35">
          <mxGeometry x="620" y="475" width="110" height="115" as="geometry" />
        </mxCell>
        <mxCell id="Mg0s3PgCY5Y0u1hdqkUn-54" value="" style="endArrow=classic;html=1;rounded=0;" edge="1" parent="1">
          <mxGeometry width="50" height="50" relative="1" as="geometry">
            <mxPoint x="605" y="480" as="sourcePoint" />
            <mxPoint x="605" y="520" as="targetPoint" />
          </mxGeometry>
        </mxCell>
        <mxCell id="Mg0s3PgCY5Y0u1hdqkUn-55" value="" style="endArrow=classic;html=1;rounded=0;exitX=0.25;exitY=1;exitDx=0;exitDy=0;" edge="1" parent="1" source="Mg0s3PgCY5Y0u1hdqkUn-61" target="Mg0s3PgCY5Y0u1hdqkUn-42">
          <mxGeometry width="50" height="50" relative="1" as="geometry">
            <mxPoint x="640" y="710" as="sourcePoint" />
            <mxPoint x="690" y="660" as="targetPoint" />
          </mxGeometry>
        </mxCell>
        <mxCell id="Mg0s3PgCY5Y0u1hdqkUn-66" value="" style="endArrow=classic;html=1;rounded=0;entryX=0.5;entryY=0;entryDx=0;entryDy=0;fillColor=#008a00;strokeColor=#005700;" edge="1" parent="1" target="Mg0s3PgCY5Y0u1hdqkUn-58">
          <mxGeometry width="50" height="50" relative="1" as="geometry">
            <mxPoint x="450" y="10" as="sourcePoint" />
            <mxPoint x="470" y="10" as="targetPoint" />
            <Array as="points" />
          </mxGeometry>
        </mxCell>
        <mxCell id="Mg0s3PgCY5Y0u1hdqkUn-67" value="User" style="sketch=0;outlineConnect=0;fontColor=#232F3E;gradientColor=none;strokeColor=#232F3E;fillColor=#ffffff;dashed=0;verticalLabelPosition=bottom;verticalAlign=top;align=center;html=1;fontSize=12;fontStyle=0;aspect=fixed;shape=mxgraph.aws4.resourceIcon;resIcon=mxgraph.aws4.user;" vertex="1" parent="1">
          <mxGeometry x="227" y="-251" width="60" height="60" as="geometry" />
        </mxCell>
        <mxCell id="Mg0s3PgCY5Y0u1hdqkUn-68" value="" style="endArrow=classic;html=1;rounded=0;fillColor=#008a00;strokeColor=#005700;startSize=5;" edge="1" parent="1" target="Mg0s3PgCY5Y0u1hdqkUn-1">
          <mxGeometry width="50" height="50" relative="1" as="geometry">
            <mxPoint x="260" y="-170" as="sourcePoint" />
            <mxPoint x="267" y="-90" as="targetPoint" />
          </mxGeometry>
        </mxCell>
        <mxCell id="Mg0s3PgCY5Y0u1hdqkUn-71" value="" style="endArrow=classic;html=1;rounded=0;exitX=-0.036;exitY=0.14;exitDx=0;exitDy=0;exitPerimeter=0;" edge="1" parent="1" source="Mg0s3PgCY5Y0u1hdqkUn-58" target="Mg0s3PgCY5Y0u1hdqkUn-69">
          <mxGeometry width="50" height="50" relative="1" as="geometry">
            <mxPoint x="39" y="166" as="sourcePoint" />
            <mxPoint x="89" y="116" as="targetPoint" />
          </mxGeometry>
        </mxCell>
      </root>
    </mxGraphModel>
  </diagram>
</mxfile>
